<svg xmlns="http://www.w3.org/2000/svg" width="28" height="30" stroke="none" stroke-linecap="round" stroke-linejoin="round" fill="#fff" fill-rule="nonzero">
  <path d="M10.375 11.342v-1.119A8.831 8.831 0 0 0 9.2 10.14c-4.797-.006-8.7 3.9-8.7 8.707a8.706 8.706 0 0 0 3.718 7.135A8.675 8.675 0 0 1 1.88 20.05c0-4.737 3.794-8.598 8.495-8.707zm.211 12.684c2.14 0 3.89-1.707 3.967-3.83l.006-18.968h3.463a6.787 6.787 0 0 1-.11-1.202h-4.726l-.006 18.969c-.08 2.1343-1.8312 3.8246-3.967 3.829a3.93 3.93 0 0 1-1.846-.46 3.949 3.949 0 0 0 3.22 1.662zm13.906-16.36V6.611a6.506 6.506 0 0 1-3.583-1.068 6.571 6.571 0 0 0 3.583 2.123z" fill="#25f4ee"/>
  <path d="M20.909 5.543a6.54 6.54 0 0 1-1.616-4.315h-1.265a6.557 6.557 0 0 0 2.88 4.316zM9.206 14.865c-2.1938.0039-3.9708 1.7822-3.973 3.976 0 1.528.869 2.858 2.134 3.523a3.936 3.936 0 0 1-.754-2.321c.0022-2.1938 1.7792-3.9721 3.973-3.976.409 0 .805.07 1.175.185v-4.833a8.831 8.831 0 0 0-1.175-.083l-.204.006v3.708c-.3806-.12-.777-.1824-1.176-.185zm15.286-7.199v3.676a11.252 11.252 0 0 1-6.58-2.116v9.621c0 4.802-3.902 8.714-8.706 8.714a8.669 8.669 0 0 1-4.988-1.579 8.69 8.69 0 0 0 6.368 2.781c4.797 0 8.707-3.906 8.707-8.714v-9.621c1.9167 1.3781 4.2183 2.1184 6.579 2.116v-4.73c-.48 0-.94-.052-1.38-.148z" fill="#fe2c55"/>
  <path d="M17.913 18.848V9.226a11.251 11.251 0 0 0 6.58 2.116V7.666a6.571 6.571 0 0 1-3.584-2.123C19.3981 4.5588 18.3548 3 18.021 1.228H14.56l-.006 18.968c-.0795 2.1347-1.8308 3.8256-3.967 3.83A3.99 3.99 0 0 1 7.36 22.37a3.991 3.991 0 0 1-2.133-3.523c.0028-2.1934 1.7796-3.9711 3.973-3.975.409 0 .805.07 1.175.185v-3.708c-4.701.103-8.495 3.964-8.495 8.701 0 2.29.888 4.373 2.338 5.933 1.4602 1.0278 3.2023 1.5796 4.988 1.58 4.798 0 8.707-3.913 8.707-8.714z" fill="#000"/>
</svg>